<svg width="183" height="221" viewBox="0 0 183 221" fill="none" xmlns="http://www.w3.org/2000/svg">
<mask id="path-1-inside-1_77_1357" fill="white">
<path fill-rule="evenodd" clip-rule="evenodd" d="M160.849 162.145H21.7969V180.836H21.7982C21.8115 191.099 28.5995 201.359 42.1622 209.19C69.3143 224.866 113.336 224.866 140.489 209.19C154.065 201.352 160.853 191.079 160.853 180.805H160.849V162.145Z"/>
</mask>
<path fill-rule="evenodd" clip-rule="evenodd" d="M160.849 162.145H21.7969V180.836H21.7982C21.8115 191.099 28.5995 201.359 42.1622 209.19C69.3143 224.866 113.336 224.866 140.489 209.19C154.065 201.352 160.853 191.079 160.853 180.805H160.849V162.145Z" fill="url(#paint0_linear_77_1357)"/>
<path d="M21.7969 162.145V161.939H21.591V162.145H21.7969ZM160.849 162.145H161.055V161.939H160.849V162.145ZM21.7969 180.836H21.591V181.042H21.7969V180.836ZM21.7982 180.836L22.004 180.835L22.0038 180.63H21.7982V180.836ZM42.1622 209.19L42.0593 209.368L42.1622 209.19ZM140.489 209.19L140.386 209.012L140.489 209.19ZM160.853 180.805H161.058V180.6H160.853V180.805ZM160.849 180.805H160.644V181.011H160.849V180.805ZM21.7969 162.35H160.849V161.939H21.7969V162.35ZM22.0027 180.836V162.145H21.591V180.836H22.0027ZM21.7982 180.63H21.7969V181.042H21.7982V180.63ZM21.5923 180.836C21.6058 191.198 28.4591 201.516 42.0593 209.368L42.2651 209.012C28.7399 201.203 22.0172 190.999 22.004 180.835L21.5923 180.836ZM42.0593 209.368C55.6739 217.229 73.5052 221.153 91.3254 221.153C109.145 221.153 126.977 217.229 140.591 209.368L140.386 209.012C126.848 216.827 109.092 220.741 91.3254 220.741C73.5583 220.741 55.8025 216.827 42.2651 209.012L42.0593 209.368ZM140.591 209.368C154.205 201.508 161.058 191.178 161.058 180.805H160.647C160.647 190.979 153.924 201.195 140.386 209.012L140.591 209.368ZM160.853 180.6H160.849V181.011H160.853V180.6ZM160.644 162.145V180.805H161.055V162.145H160.644Z" fill="#2C3242" mask="url(#path-1-inside-1_77_1357)"/>
<mask id="mask0_77_1357" style="mask-type:alpha" maskUnits="userSpaceOnUse" x="37" y="178" width="117" height="49">
<path d="M153.675 201.645V178.583C114.093 201.983 87.7031 205.437 46.0901 191.347L37.6123 213.632C48.6738 219.284 78.4026 229.715 108.826 226.227C139.249 222.739 149.88 208.912 153.675 201.645Z" fill="black"/>
</mask>
<g mask="url(#mask0_77_1357)">
<mask id="path-4-inside-2_77_1357" fill="white">
<path fill-rule="evenodd" clip-rule="evenodd" d="M160.696 170.74C159.613 180.098 152.876 189.279 140.487 196.431C113.335 212.108 69.313 212.108 42.1609 196.431C29.7718 189.279 23.0356 180.098 21.9525 170.74C20.6619 181.891 27.398 193.294 42.1609 201.817C69.313 217.493 113.335 217.493 140.487 201.817C155.25 193.294 161.986 181.891 160.696 170.74Z"/>
</mask>
<path fill-rule="evenodd" clip-rule="evenodd" d="M160.696 170.74C159.613 180.098 152.876 189.279 140.487 196.431C113.335 212.108 69.313 212.108 42.1609 196.431C29.7718 189.279 23.0356 180.098 21.9525 170.74C20.6619 181.891 27.398 193.294 42.1609 201.817C69.313 217.493 113.335 217.493 140.487 201.817C155.25 193.294 161.986 181.891 160.696 170.74Z" fill="#3C5ADC"/>
<path d="M160.696 170.74L160.963 170.709L160.428 170.709L160.696 170.74ZM140.487 196.431L140.353 196.198L140.487 196.431ZM42.1609 196.431L42.0263 196.665L42.1609 196.431ZM21.9525 170.74L22.22 170.709L21.685 170.709L21.9525 170.74ZM42.1609 201.817L42.0263 202.05L42.1609 201.817ZM140.487 201.817L140.353 201.584L140.487 201.817ZM160.428 170.709C159.358 179.954 152.697 189.071 140.353 196.198L140.622 196.665C153.056 189.486 159.867 180.242 160.963 170.771L160.428 170.709ZM140.353 196.198C126.827 204.007 109.083 207.919 91.3241 207.919C73.5653 207.919 55.821 204.007 42.2956 196.198L42.0263 196.665C55.6529 204.532 73.4958 208.458 91.3241 208.458C109.152 208.458 126.995 204.532 140.622 196.665L140.353 196.198ZM42.2956 196.198C29.9515 189.071 23.2901 179.954 22.22 170.709L21.685 170.771C22.7812 180.242 29.592 189.486 42.0263 196.665L42.2956 196.198ZM42.2956 201.584C27.586 193.091 20.9462 181.776 22.22 170.771L21.685 170.709C20.3775 182.006 27.21 193.496 42.0263 202.05L42.2956 201.584ZM140.353 201.584C126.827 209.393 109.083 213.305 91.3241 213.305C73.5653 213.305 55.821 209.393 42.2956 201.584L42.0263 202.05C55.6529 209.918 73.4958 213.843 91.3241 213.843C109.152 213.843 126.995 209.918 140.622 202.05L140.353 201.584ZM160.428 170.771C161.702 181.776 155.062 193.091 140.353 201.584L140.622 202.05C155.438 193.496 162.271 182.006 160.963 170.709L160.428 170.771Z" fill="#2C3242" mask="url(#path-4-inside-2_77_1357)"/>
<mask id="path-6-inside-3_77_1357" fill="white">
<path fill-rule="evenodd" clip-rule="evenodd" d="M160.826 173.971C160.368 183.882 153.589 193.714 140.487 201.279C113.335 216.955 69.313 216.955 42.1609 201.279C29.0594 193.714 22.2797 183.882 21.8218 173.971C21.3306 184.6 28.1104 195.321 42.1609 203.433C69.313 219.109 113.335 219.109 140.487 203.433C154.538 195.321 161.318 184.6 160.826 173.971Z"/>
</mask>
<path fill-rule="evenodd" clip-rule="evenodd" d="M160.826 173.971C160.368 183.882 153.589 193.714 140.487 201.279C113.335 216.955 69.313 216.955 42.1609 201.279C29.0594 193.714 22.2797 183.882 21.8218 173.971C21.3306 184.6 28.1104 195.321 42.1609 203.433C69.313 219.109 113.335 219.109 140.487 203.433C154.538 195.321 161.318 184.6 160.826 173.971Z" fill="#F8FAFA"/>
<path d="M160.826 173.971L161.095 173.959L160.557 173.959L160.826 173.971ZM140.487 201.279L140.353 201.045L140.487 201.279ZM42.1609 201.279L42.0263 201.512L42.1609 201.279ZM21.8218 173.971L22.0907 173.959H21.5528L21.8218 173.971ZM42.1609 203.433L42.0263 203.666L42.1609 203.433ZM140.487 203.433L140.353 203.2L140.487 203.433ZM160.557 173.959C160.105 183.747 153.407 193.509 140.353 201.045L140.622 201.512C153.771 193.92 160.632 184.018 161.095 173.984L160.557 173.959ZM140.353 201.045C126.827 208.854 109.083 212.766 91.3241 212.766C73.5653 212.766 55.821 208.854 42.2956 201.045L42.0263 201.512C55.6529 209.379 73.4958 213.305 91.3241 213.305C109.152 213.305 126.995 209.379 140.622 201.512L140.353 201.045ZM42.2956 201.045C29.2415 193.509 22.543 183.747 22.0907 173.959L21.5528 173.984C22.0164 184.018 28.8773 193.92 42.0263 201.512L42.2956 201.045ZM42.2956 203.2C28.2957 195.117 21.6059 184.476 22.0907 173.984L21.5528 173.959C21.0553 184.725 27.925 195.525 42.0263 203.666L42.2956 203.2ZM140.353 203.2C126.827 211.009 109.083 214.921 91.3241 214.921C73.5653 214.921 55.821 211.009 42.2956 203.2L42.0263 203.666C55.6529 211.533 73.4958 215.459 91.3241 215.459C109.152 215.459 126.995 211.533 140.622 203.666L140.353 203.2ZM160.557 173.984C161.042 184.476 154.352 195.117 140.353 203.2L140.622 203.666C154.723 195.525 161.593 184.725 161.095 173.959L160.557 173.984Z" fill="#2C3242" mask="url(#path-6-inside-3_77_1357)"/>
<path d="M153.443 186.342V192.808" stroke="#2C3242" stroke-width="0.26928"/>
</g>
<circle cx="56.7687" cy="56.7687" r="56.6341" transform="matrix(0.866025 -0.5 0.866025 0.5 -7.00195 162.122)" fill="#F8FAFA" stroke="#2C3242" stroke-width="0.26928"/>
<circle cx="51.4163" cy="51.4163" r="51.2816" transform="matrix(0.866025 -0.5 0.866025 0.5 2.26953 161.045)" fill="#2C3242" stroke="#2C3242" stroke-width="0.26928"/>
<circle cx="48.2111" cy="48.2111" r="48.0765" transform="matrix(0.866025 -0.5 0.866025 0.5 7.82129 163.422)" fill="#F8FAFA" stroke="#2C3242" stroke-width="0.26928"/>
<circle cx="29.3657" cy="29.3657" r="29.231" transform="matrix(0.866025 -0.5 0.866025 0.5 40.4619 161.456)" fill="#2C3242" stroke="#2C3242" stroke-width="0.26928"/>
<mask id="path-13-inside-4_77_1357" fill="white">
<path fill-rule="evenodd" clip-rule="evenodd" d="M126.472 133.011H56.1738V161.067V161.083H56.1738C56.1808 166.271 59.6125 171.458 66.4688 175.417C80.1955 183.342 102.451 183.342 116.178 175.417C123.041 171.454 126.472 166.261 126.473 161.067H126.472V133.011Z"/>
</mask>
<path fill-rule="evenodd" clip-rule="evenodd" d="M126.472 133.011H56.1738V161.067V161.083H56.1738C56.1808 166.271 59.6125 171.458 66.4688 175.417C80.1955 183.342 102.451 183.342 116.178 175.417C123.041 171.454 126.472 166.261 126.473 161.067H126.472V133.011Z" fill="url(#paint1_linear_77_1357)"/>
<path d="M56.1738 133.011V132.805H55.968V133.011H56.1738ZM126.472 133.011H126.677V132.805H126.472V133.011ZM56.1738 161.083H55.968V161.289H56.1738V161.083ZM56.1738 161.083L56.3797 161.083L56.3794 160.877H56.1738V161.083ZM66.4688 175.417L66.5718 175.238L66.4688 175.417ZM116.178 175.417L116.075 175.238L116.178 175.417ZM126.473 161.067L126.678 161.067V160.861H126.473V161.067ZM126.472 161.067H126.266V161.273H126.472V161.067ZM56.1738 133.217H126.472V132.805H56.1738V133.217ZM56.3797 161.067V133.011H55.968V161.067H56.3797ZM56.3797 161.083V161.067H55.968V161.083H56.3797ZM56.1738 160.877H56.1738V161.289H56.1738V160.877ZM55.968 161.083C55.9751 166.371 59.4721 171.615 66.3659 175.595L66.5718 175.238C59.7529 171.302 56.3865 166.172 56.3797 161.083L55.968 161.083ZM66.3659 175.595C73.2679 179.58 82.3011 181.566 91.3232 181.566C100.345 181.566 109.378 179.58 116.28 175.595L116.075 175.238C109.25 179.179 100.292 181.155 91.3232 181.155C82.3542 181.155 73.3965 179.179 66.5718 175.238L66.3659 175.595ZM116.28 175.595C123.181 171.611 126.678 166.36 126.678 161.067L126.267 161.067C126.267 166.161 122.9 171.298 116.075 175.238L116.28 175.595ZM126.473 160.861H126.472V161.273H126.473V160.861ZM126.266 133.011V161.067H126.677V133.011H126.266Z" fill="#2C3242" mask="url(#path-13-inside-4_77_1357)"/>
<circle cx="28.6993" cy="28.6993" r="28.6388" transform="matrix(0.866025 -0.5 0.866025 0.5 41.6152 130.08)" fill="#F8FAFA" stroke="#2C3242" stroke-width="0.121094"/>
<mask id="path-16-inside-5_77_1357" fill="white">
<path fill-rule="evenodd" clip-rule="evenodd" d="M99.5855 94.5608C95.3045 92.0891 88.3636 92.0891 84.0826 94.5608L59.0656 109.004H35.4512V125.115H35.4546C35.3893 126.783 36.4586 128.462 38.6625 129.735L84.1423 155.992C88.4233 158.464 95.3642 158.464 99.6452 155.992L145.065 129.769C147.284 128.488 148.353 126.794 148.272 125.115H148.321V109.004H124.602L99.5855 94.5608Z"/>
</mask>
<path fill-rule="evenodd" clip-rule="evenodd" d="M99.5855 94.5608C95.3045 92.0891 88.3636 92.0891 84.0826 94.5608L59.0656 109.004H35.4512V125.115H35.4546C35.3893 126.783 36.4586 128.462 38.6625 129.735L84.1423 155.992C88.4233 158.464 95.3642 158.464 99.6452 155.992L145.065 129.769C147.284 128.488 148.353 126.794 148.272 125.115H148.321V109.004H124.602L99.5855 94.5608Z" fill="url(#paint2_linear_77_1357)"/>
<path d="M84.0826 94.5608L84.1855 94.7391L84.0826 94.5608ZM99.5855 94.5608L99.4826 94.7391L99.5855 94.5608ZM59.0656 109.004V109.21H59.1208L59.1685 109.183L59.0656 109.004ZM35.4512 109.004V108.798H35.2453V109.004H35.4512ZM35.4512 125.115H35.2453V125.321H35.4512V125.115ZM35.4546 125.115L35.6603 125.123L35.6686 124.91H35.4546V125.115ZM38.6625 129.735L38.7654 129.556L38.6625 129.735ZM84.1423 155.992L84.0393 156.171L84.1423 155.992ZM99.6452 155.992L99.5423 155.814L99.6452 155.992ZM145.065 129.769L144.962 129.591L145.065 129.769ZM148.272 125.115V124.91H148.056L148.066 125.125L148.272 125.115ZM148.321 125.115V125.321H148.527V125.115H148.321ZM148.321 109.004H148.527V108.798H148.321V109.004ZM124.602 109.004L124.5 109.183L124.547 109.21H124.602V109.004ZM84.1855 94.7391C86.2874 93.5255 89.0551 92.9129 91.834 92.9129C94.613 92.9129 97.3807 93.5256 99.4826 94.7391L99.6884 94.3825C97.5093 93.1243 94.6661 92.5012 91.834 92.5012C89.002 92.5012 86.1588 93.1243 83.9796 94.3825L84.1855 94.7391ZM59.1685 109.183L84.1855 94.7391L83.9796 94.3825L58.9627 108.826L59.1685 109.183ZM35.4512 109.21H59.0656V108.798H35.4512V109.21ZM35.657 125.115V109.004H35.2453V125.115H35.657ZM35.4546 124.91H35.4512V125.321H35.4546V124.91ZM38.7654 129.556C36.6001 128.306 35.599 126.687 35.6603 125.123L35.2488 125.107C35.1795 126.878 36.3171 128.618 38.5596 129.913L38.7654 129.556ZM84.2452 155.814L38.7654 129.556L38.5596 129.913L84.0393 156.171L84.2452 155.814ZM99.5423 155.814C97.4404 157.028 94.6727 157.64 91.8937 157.64C89.1148 157.64 86.3471 157.028 84.2452 155.814L84.0393 156.171C86.2185 157.429 89.0617 158.052 91.8937 158.052C94.7258 158.052 97.569 157.429 99.7481 156.171L99.5423 155.814ZM144.962 129.591L99.5423 155.814L99.7481 156.171L145.168 129.947L144.962 129.591ZM148.066 125.125C148.142 126.699 147.143 128.332 144.962 129.591L145.168 129.947C147.426 128.644 148.564 126.889 148.477 125.105L148.066 125.125ZM148.321 124.91H148.272V125.321H148.321V124.91ZM148.115 109.004V125.115H148.527V109.004H148.115ZM124.602 109.21H148.321V108.798H124.602V109.21ZM99.4826 94.7391L124.5 109.183L124.705 108.826L99.6884 94.3825L99.4826 94.7391Z" fill="#2C3242" mask="url(#path-16-inside-5_77_1357)"/>
<mask id="path-18-inside-6_77_1357" fill="white">
<path fill-rule="evenodd" clip-rule="evenodd" d="M46.1397 124.627L44.8115 123.86L44.8115 128.6L46.1397 129.367L46.1397 124.627ZM42.5174 122.535L43.8456 123.302L43.8456 128.043L42.5174 127.276L42.5174 122.535ZM40.2227 121.211L41.5508 121.978L41.5508 126.718L40.2227 125.951L40.2227 121.211ZM47.1055 125.184L48.4336 125.951L48.4336 130.692L47.1055 129.925L47.1055 125.184ZM50.7276 127.276L49.3994 126.509L49.3994 131.249L50.7276 132.016L50.7276 127.276Z"/>
</mask>
<path fill-rule="evenodd" clip-rule="evenodd" d="M46.1397 124.627L44.8115 123.86L44.8115 128.6L46.1397 129.367L46.1397 124.627ZM42.5174 122.535L43.8456 123.302L43.8456 128.043L42.5174 127.276L42.5174 122.535ZM40.2227 121.211L41.5508 121.978L41.5508 126.718L40.2227 125.951L40.2227 121.211ZM47.1055 125.184L48.4336 125.951L48.4336 130.692L47.1055 129.925L47.1055 125.184ZM50.7276 127.276L49.3994 126.509L49.3994 131.249L50.7276 132.016L50.7276 127.276Z" fill="#10BD21"/>
<path d="M44.8115 123.86L44.8115 123.708L44.6799 123.632L44.6799 123.784L44.8115 123.86ZM46.1397 124.627L46.2713 124.703L46.2713 124.551L46.1397 124.475L46.1397 124.627ZM44.8115 128.6L44.6798 128.524L44.6798 128.676L44.8115 128.752L44.8115 128.6ZM46.1397 129.367L46.1397 129.519L46.2713 129.595L46.2713 129.443L46.1397 129.367ZM43.8456 123.302L43.9772 123.378L43.9772 123.226L43.8456 123.15L43.8456 123.302ZM42.5174 122.535L42.5174 122.383L42.3857 122.307L42.3857 122.459L42.5174 122.535ZM43.8456 128.043L43.8456 128.195L43.9772 128.271L43.9772 128.119L43.8456 128.043ZM42.5174 127.276L42.3857 127.2L42.3857 127.352L42.5174 127.428L42.5174 127.276ZM41.5508 121.978L41.6825 122.054L41.6825 121.902L41.5508 121.826L41.5508 121.978ZM40.2227 121.211L40.2227 121.059L40.091 120.983L40.091 121.135L40.2227 121.211ZM41.5508 126.718L41.5508 126.87L41.6825 126.946L41.6825 126.794L41.5508 126.718ZM40.2227 125.951L40.091 125.875L40.091 126.027L40.2227 126.103L40.2227 125.951ZM48.4336 125.951L48.5653 126.027L48.5653 125.875L48.4336 125.799L48.4336 125.951ZM47.1055 125.184L47.1055 125.032L46.9738 124.956L46.9738 125.108L47.1055 125.184ZM48.4336 130.692L48.4336 130.844L48.5653 130.92L48.5653 130.768L48.4336 130.692ZM47.1055 129.925L46.9738 129.849L46.9738 130.001L47.1055 130.077L47.1055 129.925ZM49.3994 126.509L49.3994 126.357L49.2677 126.281L49.2677 126.433L49.3994 126.509ZM50.7276 127.276L50.8592 127.352L50.8592 127.2L50.7276 127.124L50.7276 127.276ZM49.3994 131.249L49.2677 131.173L49.2677 131.325L49.3994 131.401L49.3994 131.249ZM50.7276 132.016L50.7276 132.168L50.8592 132.244L50.8592 132.092L50.7276 132.016ZM44.8115 124.012L46.1397 124.779L46.1397 124.475L44.8115 123.708L44.8115 124.012ZM44.9432 128.676L44.9432 123.936L44.6799 123.784L44.6798 128.524L44.9432 128.676ZM46.1397 129.215L44.8115 128.448L44.8115 128.752L46.1397 129.519L46.1397 129.215ZM46.008 124.551L46.008 129.291L46.2713 129.443L46.2713 124.703L46.008 124.551ZM43.8456 123.15L42.5174 122.383L42.5174 122.688L43.8456 123.454L43.8456 123.15ZM43.9772 128.119L43.9772 123.378L43.7139 123.226L43.7139 127.967L43.9772 128.119ZM42.5174 127.428L43.8456 128.195L43.8456 127.89L42.5174 127.124L42.5174 127.428ZM42.3857 122.459L42.3857 127.2L42.6491 127.352L42.6491 122.611L42.3857 122.459ZM41.5508 121.826L40.2227 121.059L40.2227 121.363L41.5508 122.13L41.5508 121.826ZM41.6825 126.794L41.6825 122.054L41.4191 121.902L41.4191 126.642L41.6825 126.794ZM40.2227 126.103L41.5508 126.87L41.5508 126.566L40.2227 125.799L40.2227 126.103ZM40.091 121.135L40.091 125.875L40.3543 126.027L40.3543 121.287L40.091 121.135ZM48.4336 125.799L47.1055 125.032L47.1055 125.337L48.4336 126.103L48.4336 125.799ZM48.5653 130.768L48.5653 126.027L48.3019 125.875L48.3019 130.616L48.5653 130.768ZM47.1055 130.077L48.4336 130.844L48.4336 130.539L47.1055 129.773L47.1055 130.077ZM46.9738 125.108L46.9738 129.849L47.2371 130.001L47.2371 125.261L46.9738 125.108ZM49.3994 126.661L50.7276 127.428L50.7276 127.124L49.3994 126.357L49.3994 126.661ZM49.5311 131.325L49.5311 126.585L49.2677 126.433L49.2677 131.173L49.5311 131.325ZM50.7276 131.864L49.3994 131.097L49.3994 131.401L50.7276 132.168L50.7276 131.864ZM50.5959 127.2L50.5959 131.94L50.8592 132.092L50.8592 127.352L50.5959 127.2Z" fill="#2C3242" mask="url(#path-18-inside-6_77_1357)"/>
<mask id="path-20-inside-7_77_1357" fill="white">
<path fill-rule="evenodd" clip-rule="evenodd" d="M100.838 145.178L102.166 144.411L102.166 149.151L100.838 149.918L100.838 145.178ZM98.5439 146.503L99.8721 145.736L99.8721 150.476L98.5439 151.243L98.5439 146.503ZM104.46 143.087L103.132 143.854L103.132 148.594L104.46 147.827L104.46 143.087ZM105.427 142.529L106.755 141.762L106.755 146.502L105.427 147.269L105.427 142.529ZM109.049 140.438L107.721 141.204L107.721 145.945L109.049 145.178L109.049 140.438Z"/>
</mask>
<path fill-rule="evenodd" clip-rule="evenodd" d="M100.838 145.178L102.166 144.411L102.166 149.151L100.838 149.918L100.838 145.178ZM98.5439 146.503L99.8721 145.736L99.8721 150.476L98.5439 151.243L98.5439 146.503ZM104.46 143.087L103.132 143.854L103.132 148.594L104.46 147.827L104.46 143.087ZM105.427 142.529L106.755 141.762L106.755 146.502L105.427 147.269L105.427 142.529ZM109.049 140.438L107.721 141.204L107.721 145.945L109.049 145.178L109.049 140.438Z" fill="#3C5ADC"/>
<path d="M102.166 144.411L102.298 144.335L102.298 144.183L102.166 144.259L102.166 144.411ZM100.838 145.178L100.838 145.026L100.706 145.102L100.706 145.254L100.838 145.178ZM102.166 149.151L102.166 149.303L102.298 149.227L102.298 149.075L102.166 149.151ZM100.838 149.918L100.706 149.994L100.706 150.146L100.838 150.07L100.838 149.918ZM99.8721 145.736L100.004 145.66L100.004 145.508L99.8721 145.584L99.8721 145.736ZM98.5439 146.503L98.5439 146.351L98.4123 146.427L98.4123 146.579L98.5439 146.503ZM99.8721 150.476L99.8721 150.628L100.004 150.552L100.004 150.4L99.8721 150.476ZM98.5439 151.243L98.4123 151.319L98.4123 151.471L98.5439 151.395L98.5439 151.243ZM103.132 143.854L103.132 143.702L103 143.778L103 143.93L103.132 143.854ZM104.46 143.087L104.592 143.011L104.592 142.859L104.46 142.935L104.46 143.087ZM103.132 148.594L103 148.67L103 148.822L103.132 148.746L103.132 148.594ZM104.46 147.827L104.46 147.979L104.592 147.903L104.592 147.751L104.46 147.827ZM106.755 141.762L106.887 141.686L106.887 141.534L106.755 141.61L106.755 141.762ZM105.427 142.529L105.427 142.377L105.295 142.453L105.295 142.605L105.427 142.529ZM106.755 146.502L106.755 146.654L106.887 146.578L106.887 146.426L106.755 146.502ZM105.427 147.269L105.295 147.345L105.295 147.497L105.427 147.421L105.427 147.269ZM107.721 141.204L107.721 141.052L107.589 141.128L107.589 141.28L107.721 141.204ZM109.049 140.438L109.181 140.362L109.181 140.21L109.049 140.286L109.049 140.438ZM107.721 145.945L107.589 146.021L107.589 146.173L107.721 146.097L107.721 145.945ZM109.049 145.178L109.049 145.33L109.181 145.254L109.181 145.102L109.049 145.178ZM102.166 144.259L100.838 145.026L100.838 145.33L102.166 144.563L102.166 144.259ZM102.298 149.075L102.298 144.335L102.034 144.487L102.034 149.227L102.298 149.075ZM100.838 150.07L102.166 149.303L102.166 148.999L100.838 149.766L100.838 150.07ZM100.706 145.254L100.706 149.994L100.97 149.842L100.97 145.102L100.706 145.254ZM99.8721 145.584L98.5439 146.351L98.5439 146.655L99.8721 145.888L99.8721 145.584ZM100.004 150.4L100.004 145.66L99.7404 145.812L99.7404 150.552L100.004 150.4ZM98.5439 151.395L99.8721 150.628L99.8721 150.324L98.5439 151.091L98.5439 151.395ZM98.4123 146.579L98.4123 151.319L98.6756 151.167L98.6756 146.427L98.4123 146.579ZM103.132 144.006L104.46 143.239L104.46 142.935L103.132 143.702L103.132 144.006ZM103.263 148.518L103.263 143.778L103 143.93L103 148.67L103.263 148.518ZM104.46 147.675L103.132 148.442L103.132 148.746L104.46 147.979L104.46 147.675ZM104.328 143.163L104.328 147.903L104.592 147.751L104.592 143.011L104.328 143.163ZM106.755 141.61L105.427 142.377L105.427 142.681L106.755 141.914L106.755 141.61ZM106.887 146.426L106.887 141.686L106.623 141.838L106.623 146.578L106.887 146.426ZM105.427 147.421L106.755 146.654L106.755 146.35L105.427 147.117L105.427 147.421ZM105.295 142.605L105.295 147.345L105.558 147.193L105.558 142.453L105.295 142.605ZM107.721 141.356L109.049 140.59L109.049 140.286L107.721 141.052L107.721 141.356ZM107.852 145.869L107.852 141.128L107.589 141.28L107.589 146.021L107.852 145.869ZM109.049 145.026L107.721 145.793L107.721 146.097L109.049 145.33L109.049 145.026ZM108.917 140.514L108.917 145.254L109.181 145.102L109.181 140.362L108.917 140.514Z" fill="#2C3242" mask="url(#path-20-inside-7_77_1357)"/>
<rect x="-8.02518e-09" y="0.13464" width="70.1475" height="70.0786" rx="8.70594" transform="matrix(0.866025 0.5 -0.866025 0.5 91.9506 74.0421)" fill="url(#paint3_linear_77_1357)" stroke="#2C3242" stroke-width="0.26928"/>
<path d="M91.877 141.529V157.686" stroke="#2C3242" stroke-width="0.26928"/>
<mask id="path-24-inside-8_77_1357" fill="white">
<path fill-rule="evenodd" clip-rule="evenodd" d="M134.413 56.4384H48.2432V105.986H48.251C48.3182 107.171 49.1349 108.344 50.7012 109.248L85.4244 129.295C88.6973 131.185 94.0037 131.185 97.2766 129.295L131.954 109.274C133.532 108.363 134.349 107.18 134.406 105.986H134.413V56.4384Z"/>
</mask>
<path fill-rule="evenodd" clip-rule="evenodd" d="M134.413 56.4384H48.2432V105.986H48.251C48.3182 107.171 49.1349 108.344 50.7012 109.248L85.4244 129.295C88.6973 131.185 94.0037 131.185 97.2766 129.295L131.954 109.274C133.532 108.363 134.349 107.18 134.406 105.986H134.413V56.4384Z" fill="url(#paint4_linear_77_1357)"/>
<path d="M48.2432 56.4384V56.2325H48.0373V56.4384H48.2432ZM134.413 56.4384H134.619V56.2325H134.413V56.4384ZM48.2432 105.986H48.0373V106.192H48.2432V105.986ZM48.251 105.986L48.4566 105.974L48.4456 105.78H48.251V105.986ZM50.7012 109.248L50.5982 109.426L50.7012 109.248ZM85.4244 129.295L85.3215 129.474L85.4244 129.295ZM97.2766 129.295L97.3795 129.474L97.2766 129.295ZM131.954 109.274L131.851 109.096L131.954 109.274ZM134.406 105.986V105.78H134.209L134.2 105.976L134.406 105.986ZM134.413 105.986V106.192H134.619V105.986H134.413ZM48.2432 56.6442H134.413V56.2325H48.2432V56.6442ZM48.449 105.986V56.4384H48.0373V105.986H48.449ZM48.251 105.78H48.2432V106.192H48.251V105.78ZM50.8041 109.07C49.2739 108.186 48.5185 107.066 48.4566 105.974L48.0455 105.998C48.118 107.275 48.996 108.501 50.5982 109.426L50.8041 109.07ZM85.5273 129.117L50.8041 109.07L50.5982 109.426L85.3215 129.474L85.5273 129.117ZM97.1736 129.117C95.5758 130.04 93.4687 130.507 91.3505 130.507C89.2322 130.507 87.1251 130.04 85.5273 129.117L85.3215 129.474C86.9966 130.441 89.1791 130.919 91.3505 130.919C93.5219 130.919 95.7044 130.441 97.3795 129.474L97.1736 129.117ZM131.851 109.096L97.1736 129.117L97.3795 129.474L132.057 109.453L131.851 109.096ZM134.2 105.976C134.148 107.076 133.393 108.206 131.851 109.096L132.057 109.453C133.671 108.521 134.55 107.283 134.611 105.996L134.2 105.976ZM134.413 105.78H134.406V106.192H134.413V105.78ZM134.207 56.4384V105.986H134.619V56.4384H134.207Z" fill="#2C3242" mask="url(#path-24-inside-8_77_1357)"/>
<rect x="-8.02518e-09" y="0.13464" width="53.5059" height="53.4533" rx="6.70822" transform="matrix(0.866025 0.5 -0.866025 0.5 91.4193 29.5533)" fill="url(#paint5_linear_77_1357)" stroke="#2C3242" stroke-width="0.26928"/>
<path d="M91.6084 81.2122L91.6084 130.76" stroke="#2C3242" stroke-width="0.26928"/>
<path fill-rule="evenodd" clip-rule="evenodd" d="M78.725 53.9697C79.8134 50.1957 85.8251 47.6607 92.353 48.1326C92.4953 48.8098 92.4891 49.4587 92.3176 50.0762C92.1945 50.518 91.9868 50.9479 91.6882 51.365C91.6787 51.379 91.669 51.3929 91.6584 51.4065C91.4852 51.6296 91.0988 51.8612 90.6261 51.7933C87.3434 51.318 85.1741 52.6486 85.0691 54.6515C84.9682 56.5854 86.7583 58.3864 90.0675 58.7421C93.376 59.0977 96.0266 57.7707 97.0522 55.9394C98.0883 54.0905 96.7668 52.5018 93.661 52.1573C93.2913 52.1156 93.253 51.918 93.3604 51.7429C93.3668 51.7327 93.3746 51.7228 93.3815 51.7126C93.7064 51.2441 93.9347 50.7598 94.0738 50.261C94.2472 49.6383 94.2791 48.9986 94.1816 48.3437C100.396 49.3367 104.465 52.9124 103.396 56.6215C102.267 60.5404 95.8278 63.1233 89.0149 62.3913C82.2022 61.6591 77.5953 57.8885 78.725 53.9697Z" fill="#EB4869"/>
<rect x="0.116602" y="0.0673201" width="8.0521" height="3.9275" transform="matrix(0.866026 -0.5 2.20305e-08 1 116.577 141.832)" fill="#2C3242" stroke="#2C3242" stroke-width="0.26928"/>
<rect x="0.116602" y="0.20196" width="2.48786" height="3.75873" transform="matrix(0.866026 0.5 -2.20305e-08 1 117.135 141.46)" fill="#DCE8E6" stroke="#2C3242" stroke-width="0.26928"/>
<rect x="0.233204" width="6.45056" height="2.24252" transform="matrix(0.866026 -0.5 0.866026 0.5 117.161 141.905)" fill="#F8FAFA" stroke="#2C3242" stroke-width="0.26928"/>
<rect x="0.116602" y="0.0673201" width="6.45056" height="3.9275" transform="matrix(0.866026 -0.5 2.20305e-08 1 119.32 142.835)" fill="#3C5ADC" stroke="#2C3242" stroke-width="0.26928"/>
<rect x="0.116602" y="0.20196" width="5.50133" height="3.75873" transform="matrix(0.866026 0.5 -2.20305e-08 1 111.832 138.876)" fill="#DCE8E6" stroke="#2C3242" stroke-width="0.26928"/>
<rect x="0.233204" width="7.99373" height="5.44428" transform="matrix(0.866026 -0.5 0.866026 0.5 111.695 139.227)" fill="#F8FAFA" stroke="#2C3242" stroke-width="0.26928"/>
<ellipse cx="4.41812" cy="4.41812" rx="4.41812" ry="4.41812" transform="matrix(0.866025 0.5 -2.20305e-08 1 28.7959 185.695)" fill="#2C3242"/>
<circle cx="4.14884" cy="4.14884" r="4.07282" transform="matrix(0.866025 0.5 -2.20305e-08 1 28.2568 186.233)" fill="#EB4869" stroke="#2C3242" stroke-width="0.152043"/>
<ellipse cx="4.41812" cy="4.41812" rx="4.41812" ry="4.41812" transform="matrix(0.848048 0.529919 -0.0348995 0.999391 39.8477 194.162)" fill="#2C3242"/>
<path d="M46.1186 203.185C46.0401 205.433 44.4301 206.289 42.5225 205.097C40.6149 203.905 39.1322 201.117 39.2107 198.869C39.2892 196.621 40.8992 195.765 42.8068 196.957C44.7143 198.149 46.1971 200.937 46.1186 203.185Z" fill="#3C5ADC" stroke="#2C3242" stroke-width="0.152043"/>
<defs>
<linearGradient id="paint0_linear_77_1357" x1="91.3247" y1="162.145" x2="91.3247" y2="220.947" gradientUnits="userSpaceOnUse">
<stop stop-color="#F3F4F9"/>
<stop offset="1" stop-color="#DCDFEC"/>
</linearGradient>
<linearGradient id="paint1_linear_77_1357" x1="91.3232" y1="133.011" x2="91.3232" y2="181.361" gradientUnits="userSpaceOnUse">
<stop stop-color="#F3F4F9"/>
<stop offset="1" stop-color="#DCDFEC"/>
</linearGradient>
<linearGradient id="paint2_linear_77_1357" x1="91.886" y1="92.707" x2="91.886" y2="157.846" gradientUnits="userSpaceOnUse">
<stop stop-color="#F3F4F9"/>
<stop offset="1" stop-color="#DCDFEC"/>
</linearGradient>
<linearGradient id="paint3_linear_77_1357" x1="35.2084" y1="0" x2="35.2084" y2="70.3478" gradientUnits="userSpaceOnUse">
<stop stop-color="white"/>
<stop offset="1" stop-color="#F4F4F9"/>
</linearGradient>
<linearGradient id="paint4_linear_77_1357" x1="91.328" y1="56.4384" x2="91.328" y2="130.713" gradientUnits="userSpaceOnUse">
<stop stop-color="#F3F4F9"/>
<stop offset="1" stop-color="#DCDFEC"/>
</linearGradient>
<linearGradient id="paint5_linear_77_1357" x1="26.8876" y1="0" x2="26.8876" y2="53.7225" gradientUnits="userSpaceOnUse">
<stop stop-color="white"/>
<stop offset="1" stop-color="#F4F4F9"/>
</linearGradient>
</defs>
</svg>
