<svg width="183" height="221" viewBox="0 0 183 221" fill="none" xmlns="http://www.w3.org/2000/svg">
<mask id="path-1-inside-1_77_1238" fill="white">
<path fill-rule="evenodd" clip-rule="evenodd" d="M160.259 161.55H21.7168V180.172H21.7178C21.731 190.398 28.4941 200.621 42.0071 208.423C69.0596 224.041 112.92 224.041 139.973 208.423C153.499 200.613 160.262 190.378 160.262 180.142H160.259V161.55Z"/>
</mask>
<path fill-rule="evenodd" clip-rule="evenodd" d="M160.259 161.55H21.7168V180.172H21.7178C21.731 190.398 28.4941 200.621 42.0071 208.423C69.0596 224.041 112.92 224.041 139.973 208.423C153.499 200.613 160.262 190.378 160.262 180.142H160.259V161.55Z" fill="url(#paint0_linear_77_1238)"/>
<path d="M21.7168 161.55V161.345H21.5117V161.55H21.7168ZM160.259 161.55H160.464V161.345H160.259V161.55ZM21.7168 180.172H21.5117V180.378H21.7168V180.172ZM21.7178 180.172L21.9229 180.172L21.9226 179.967H21.7178V180.172ZM42.0071 208.423L42.1097 208.245L42.0071 208.423ZM139.973 208.423L139.87 208.245L139.973 208.423ZM160.262 180.142H160.467V179.937H160.262V180.142ZM160.259 180.142H160.054V180.347H160.259V180.142ZM21.7168 161.755H160.259V161.345H21.7168V161.755ZM21.9219 180.172V161.55H21.5117V180.172H21.9219ZM21.7178 179.967H21.7168V180.378H21.7178V179.967ZM21.5127 180.173C21.526 190.497 28.3543 200.777 41.9046 208.6L42.1097 208.245C28.634 200.465 21.936 190.299 21.9229 180.172L21.5127 180.173ZM41.9046 208.6C55.4693 216.432 73.2352 220.342 90.99 220.342C108.745 220.342 126.511 216.432 140.075 208.6L139.87 208.245C126.383 216.032 108.692 219.932 90.99 219.932C73.2881 219.932 55.5974 216.032 42.1097 208.245L41.9046 208.6ZM140.075 208.6C153.639 200.769 160.467 190.477 160.467 180.142H160.057C160.057 190.279 153.359 200.457 139.87 208.245L140.075 208.6ZM160.262 179.937H160.259V180.347H160.262V179.937ZM160.054 161.55V180.142H160.464V161.55H160.054Z" fill="#2C3242" mask="url(#path-1-inside-1_77_1238)"/>
<mask id="mask0_77_1238" style="mask-type:alpha" maskUnits="userSpaceOnUse" x="37" y="177" width="117" height="50">
<path d="M153.11 200.906V177.928C113.674 201.242 87.3807 204.684 45.9203 190.646L37.4736 212.848C48.4946 218.479 78.1143 228.873 108.426 225.398C138.738 221.922 149.329 208.146 153.11 200.906Z" fill="black"/>
</mask>
<g mask="url(#mask0_77_1238)">
<mask id="path-4-inside-2_77_1238" fill="white">
<path fill-rule="evenodd" clip-rule="evenodd" d="M160.106 170.114C159.027 179.437 152.316 188.584 139.972 195.711C112.919 211.33 69.0586 211.33 42.0062 195.711C29.6625 188.584 22.951 179.437 21.8719 170.114C20.5859 181.224 27.2974 192.585 42.0062 201.077C69.0586 216.696 112.919 216.696 139.972 201.077C154.681 192.585 161.392 181.224 160.106 170.114Z"/>
</mask>
<path fill-rule="evenodd" clip-rule="evenodd" d="M160.106 170.114C159.027 179.437 152.316 188.584 139.972 195.711C112.919 211.33 69.0586 211.33 42.0062 195.711C29.6625 188.584 22.951 179.437 21.8719 170.114C20.5859 181.224 27.2974 192.585 42.0062 201.077C69.0586 216.696 112.919 216.696 139.972 201.077C154.681 192.585 161.392 181.224 160.106 170.114Z" fill="#3C5ADC"/>
<path d="M160.106 170.114L160.373 170.083L159.84 170.083L160.106 170.114ZM139.972 195.711L140.106 195.943L139.972 195.711ZM42.0062 195.711L42.1403 195.479L42.0062 195.711ZM21.8719 170.114L22.1384 170.083L21.6054 170.083L21.8719 170.114ZM42.0062 201.077L42.1403 200.844L42.0062 201.077ZM139.972 201.077L139.838 200.844L139.972 201.077ZM159.84 170.083C158.773 179.294 152.136 188.378 139.838 195.479L140.106 195.943C152.495 188.791 159.28 179.581 160.373 170.144L159.84 170.083ZM139.838 195.479C126.362 203.259 108.683 207.157 90.989 207.157C73.2953 207.157 55.6161 203.259 42.1403 195.479L41.872 195.943C55.4486 203.782 73.2261 207.693 90.989 207.693C108.752 207.693 126.529 203.782 140.106 195.943L139.838 195.479ZM42.1403 195.479C29.8416 188.378 23.2045 179.294 22.1384 170.083L21.6054 170.144C22.6975 179.581 29.4834 188.791 41.872 195.943L42.1403 195.479ZM42.1403 200.844C27.4846 192.383 20.8693 181.109 22.1384 170.144L21.6054 170.083C20.3026 181.338 27.1101 192.786 41.872 201.309L42.1403 200.844ZM139.838 200.844C126.362 208.625 108.683 212.523 90.989 212.523C73.2953 212.523 55.6161 208.625 42.1403 200.844L41.872 201.309C55.4486 209.148 73.2261 213.059 90.989 213.059C108.752 213.059 126.529 209.148 140.106 201.309L139.838 200.844ZM159.84 170.144C161.109 181.109 154.493 192.383 139.838 200.844L140.106 201.309C154.868 192.786 161.675 181.338 160.373 170.083L159.84 170.144Z" fill="#2C3242" mask="url(#path-4-inside-2_77_1238)"/>
<mask id="path-6-inside-3_77_1238" fill="white">
<path fill-rule="evenodd" clip-rule="evenodd" d="M160.236 173.333C159.78 183.208 153.025 193.004 139.972 200.54C112.919 216.159 69.0586 216.159 42.0062 200.54C28.9527 193.004 22.1979 183.208 21.7416 173.333C21.2523 183.923 28.0071 194.604 42.0062 202.687C69.0586 218.305 112.919 218.305 139.972 202.687C153.971 194.604 160.726 183.923 160.236 173.333Z"/>
</mask>
<path fill-rule="evenodd" clip-rule="evenodd" d="M160.236 173.333C159.78 183.208 153.025 193.004 139.972 200.54C112.919 216.159 69.0586 216.159 42.0062 200.54C28.9527 193.004 22.1979 183.208 21.7416 173.333C21.2523 183.923 28.0071 194.604 42.0062 202.687C69.0586 218.305 112.919 218.305 139.972 202.687C153.971 194.604 160.726 183.923 160.236 173.333Z" fill="#F8FAFA"/>
<path d="M160.236 173.333L160.504 173.321L159.968 173.321L160.236 173.333ZM139.972 200.54L139.838 200.308L139.972 200.54ZM42.0062 200.54L42.1403 200.308L42.0062 200.54ZM21.7416 173.333L22.0096 173.321L21.4736 173.321L21.7416 173.333ZM42.0062 202.687L42.1403 202.454L42.0062 202.687ZM139.972 202.687L140.106 202.919L139.972 202.687ZM159.968 173.321C159.518 183.073 152.844 192.799 139.838 200.308L140.106 200.773C153.207 193.209 160.042 183.343 160.504 173.346L159.968 173.321ZM139.838 200.308C126.362 208.088 108.683 211.986 90.989 211.986C73.2953 211.986 55.6161 208.088 42.1403 200.308L41.872 200.773C55.4486 208.611 73.2261 212.523 90.989 212.523C108.752 212.523 126.529 208.611 140.106 200.773L139.838 200.308ZM42.1403 200.308C29.1341 192.799 22.4602 183.073 22.0096 173.321L21.4736 173.346C21.9355 183.343 28.7713 193.209 41.872 200.773L42.1403 200.308ZM42.1403 202.454C28.1918 194.401 21.5266 183.8 22.0096 173.346L21.4736 173.321C20.978 184.047 27.8224 194.808 41.872 202.919L42.1403 202.454ZM139.838 202.454C126.362 210.235 108.683 214.133 90.989 214.133C73.2953 214.133 55.6161 210.235 42.1403 202.454L41.872 202.919C55.4486 210.758 73.2261 214.669 90.989 214.669C108.752 214.669 126.529 210.758 140.106 202.919L139.838 202.454ZM159.968 173.346C160.451 183.8 153.786 194.401 139.838 202.454L140.106 202.919C154.156 194.808 161 184.047 160.504 173.321L159.968 173.346Z" fill="#2C3242" mask="url(#path-6-inside-3_77_1238)"/>
<path d="M152.88 185.659V192.101" stroke="#2C3242" stroke-width="0.268293"/>
</g>
<circle cx="56.5605" cy="56.5605" r="56.4264" transform="matrix(0.866025 -0.5 0.866025 0.5 -6.97559 161.528)" fill="#F8FAFA" stroke="#2C3242" stroke-width="0.268293"/>
<circle cx="51.2277" cy="51.2277" r="51.0935" transform="matrix(0.866025 -0.5 0.866025 0.5 2.26172 160.454)" fill="#2C3242" stroke="#2C3242" stroke-width="0.268293"/>
<circle cx="48.0343" cy="48.0343" r="47.9002" transform="matrix(0.866025 -0.5 0.866025 0.5 7.79199 162.823)" fill="#F8FAFA" stroke="#2C3242" stroke-width="0.268293"/>
<circle cx="29.2579" cy="29.2579" r="29.1238" transform="matrix(0.866025 -0.5 0.866025 0.5 40.3135 160.864)" fill="#2C3242" stroke="#2C3242" stroke-width="0.268293"/>
<mask id="path-13-inside-4_77_1238" fill="white">
<path fill-rule="evenodd" clip-rule="evenodd" d="M126.008 132.523H55.9678V160.492H55.9679C55.9749 165.661 59.394 170.829 66.2251 174.773C79.9015 182.669 102.075 182.669 115.752 174.773C122.59 170.825 126.009 165.651 126.009 160.476H126.008V132.523Z"/>
</mask>
<path fill-rule="evenodd" clip-rule="evenodd" d="M126.008 132.523H55.9678V160.492H55.9679C55.9749 165.661 59.394 170.829 66.2251 174.773C79.9015 182.669 102.075 182.669 115.752 174.773C122.59 170.825 126.009 165.651 126.009 160.476H126.008V132.523Z" fill="url(#paint1_linear_77_1238)"/>
<path d="M55.9678 132.523V132.318H55.7627V132.523H55.9678ZM126.008 132.523H126.213V132.318H126.008V132.523ZM55.9678 160.492H55.7627V160.697H55.9678V160.492ZM55.9679 160.492L56.173 160.492L56.1727 160.287H55.9679V160.492ZM66.2251 174.773L66.3277 174.595L66.2251 174.773ZM115.752 174.773L115.649 174.595L115.752 174.773ZM126.009 160.476L126.214 160.476V160.271H126.009V160.476ZM126.008 160.476H125.803V160.681H126.008V160.476ZM55.9678 132.728H126.008V132.318H55.9678V132.728ZM56.1729 160.492V132.523H55.7627V160.492H56.1729ZM55.9679 160.287H55.9678V160.697H55.9679V160.287ZM55.7628 160.492C55.7699 165.76 59.2541 170.985 66.1226 174.951L66.3277 174.595C59.5339 170.673 56.1799 165.562 56.173 160.492L55.7628 160.492ZM66.1226 174.951C72.9993 178.921 81.9994 180.9 90.9883 180.9C99.9773 180.9 108.977 178.921 115.854 174.951L115.649 174.595C108.849 178.521 99.9244 180.49 90.9883 180.49C82.0523 180.49 73.1273 178.521 66.3277 174.595L66.1226 174.951ZM115.854 174.951C122.729 170.981 126.214 165.75 126.214 160.476L125.804 160.476C125.804 165.552 122.45 170.669 115.649 174.595L115.854 174.951ZM126.009 160.271H126.008V160.681H126.009V160.271ZM125.803 132.523V160.476H126.213V132.523H125.803Z" fill="#2C3242" mask="url(#path-13-inside-4_77_1238)"/>
<circle cx="28.5941" cy="28.5941" r="28.5337" transform="matrix(0.866025 -0.5 0.866025 0.5 41.4629 129.603)" fill="#F8FAFA" stroke="#2C3242" stroke-width="0.12065"/>
<mask id="path-16-inside-5_77_1238" fill="white">
<path fill-rule="evenodd" clip-rule="evenodd" d="M99.2204 94.2139C94.9551 91.7514 88.0396 91.7514 83.7743 94.2139L58.8491 108.605H35.3213V124.657H35.3247C35.2596 126.318 36.325 127.991 38.5208 129.259L83.8338 155.42C88.0991 157.883 95.0145 157.883 99.2799 155.42L144.533 129.293C146.744 128.017 147.809 126.329 147.728 124.657H147.777V108.605H124.146L99.2204 94.2139Z"/>
</mask>
<path fill-rule="evenodd" clip-rule="evenodd" d="M99.2204 94.2139C94.9551 91.7514 88.0396 91.7514 83.7743 94.2139L58.8491 108.605H35.3213V124.657H35.3247C35.2596 126.318 36.325 127.991 38.5208 129.259L83.8338 155.42C88.0991 157.883 95.0145 157.883 99.2799 155.42L144.533 129.293C146.744 128.017 147.809 126.329 147.728 124.657H147.777V108.605H124.146L99.2204 94.2139Z" fill="url(#paint2_linear_77_1238)"/>
<path d="M83.7743 94.2139L83.6718 94.0363L83.7743 94.2139ZM99.2204 94.2139L99.3229 94.0363L99.2204 94.2139ZM58.8491 108.605V108.81H58.9041L58.9517 108.782L58.8491 108.605ZM35.3213 108.605V108.399H35.1162V108.605H35.3213ZM35.3213 124.657H35.1162V124.862H35.3213V124.657ZM35.3247 124.657L35.5296 124.665L35.538 124.451H35.3247V124.657ZM38.5208 129.259L38.6234 129.081H38.6234L38.5208 129.259ZM83.8338 155.42L83.7312 155.598L83.8338 155.42ZM99.2799 155.42L99.3824 155.598L99.2799 155.42ZM144.533 129.293L144.636 129.471L144.533 129.293ZM147.728 124.657V124.451H147.513L147.523 124.666L147.728 124.657ZM147.777 124.657V124.862H147.982V124.657H147.777ZM147.777 108.605H147.982V108.399H147.777V108.605ZM124.146 108.605L124.043 108.782L124.091 108.81H124.146V108.605ZM83.8769 94.3916C85.971 93.1825 88.7286 92.5721 91.4974 92.5721C94.2661 92.5721 97.0237 93.1825 99.1178 94.3916L99.3229 94.0363C97.1518 92.7828 94.319 92.1619 91.4974 92.1619C88.6757 92.1619 85.8429 92.7828 83.6718 94.0363L83.8769 94.3916ZM58.9517 108.782L83.8769 94.3916L83.6718 94.0363L58.7466 108.427L58.9517 108.782ZM35.3213 108.81H58.8491V108.399H35.3213V108.81ZM35.5264 124.657V108.605H35.1162V124.657H35.5264ZM35.3247 124.451H35.3213V124.862H35.3247V124.451ZM38.6234 129.081C36.466 127.836 35.4686 126.223 35.5296 124.665L35.1197 124.649C35.0506 126.413 36.184 128.147 38.4183 129.436L38.6234 129.081ZM83.9364 155.243L38.6234 129.081L38.4183 129.436L83.7312 155.598L83.9364 155.243ZM99.1773 155.243C97.0832 156.452 94.3256 157.062 91.5568 157.062C88.7881 157.062 86.0305 156.452 83.9364 155.243L83.7312 155.598C85.9024 156.851 88.7352 157.472 91.5568 157.472C94.3785 157.472 97.2112 156.851 99.3824 155.598L99.1773 155.243ZM144.431 129.116L99.1773 155.243L99.3824 155.598L144.636 129.471L144.431 129.116ZM147.523 124.666C147.599 126.235 146.603 127.861 144.431 129.116L144.636 129.471C146.886 128.172 148.019 126.423 147.933 124.647L147.523 124.666ZM147.777 124.451H147.728V124.862H147.777V124.451ZM147.572 108.605V124.657H147.982V108.605H147.572ZM124.146 108.81H147.777V108.399H124.146V108.81ZM99.1178 94.3916L124.043 108.782L124.248 108.427L99.3229 94.0363L99.1178 94.3916Z" fill="#2C3242" mask="url(#path-16-inside-5_77_1238)"/>
<mask id="path-18-inside-6_77_1238" fill="white">
<path fill-rule="evenodd" clip-rule="evenodd" d="M45.9707 124.17L44.6475 123.406L44.6475 128.129L45.9707 128.893L45.9707 124.17ZM42.3615 122.086L43.6848 122.85L43.6848 127.573L42.3615 126.809L42.3615 122.086ZM40.0752 120.766L41.3985 121.53L41.3985 126.253L40.0752 125.489L40.0752 120.766ZM46.9325 124.725L48.2558 125.489L48.2558 130.212L46.9325 129.448L46.9325 124.725ZM50.5412 126.809L49.218 126.045L49.218 130.768L50.5412 131.532L50.5412 126.809Z"/>
</mask>
<path fill-rule="evenodd" clip-rule="evenodd" d="M45.9707 124.17L44.6475 123.406L44.6475 128.129L45.9707 128.893L45.9707 124.17ZM42.3615 122.086L43.6848 122.85L43.6848 127.573L42.3615 126.809L42.3615 122.086ZM40.0752 120.766L41.3985 121.53L41.3985 126.253L40.0752 125.489L40.0752 120.766ZM46.9325 124.725L48.2558 125.489L48.2558 130.212L46.9325 129.448L46.9325 124.725ZM50.5412 126.809L49.218 126.045L49.218 130.768L50.5412 131.532L50.5412 126.809Z" fill="#10BD21"/>
<path d="M44.6475 123.406L44.6475 123.254L44.5163 123.178L44.5163 123.33L44.6475 123.406ZM45.9707 124.17L46.1019 124.245L46.1019 124.094L45.9707 124.018L45.9707 124.17ZM44.6475 128.129L44.5163 128.053L44.5163 128.204L44.6475 128.28L44.6475 128.129ZM45.9707 128.893L45.9707 129.044L46.1019 129.12L46.1019 128.968L45.9707 128.893ZM43.6848 122.85L43.816 122.926L43.816 122.774L43.6848 122.699L43.6848 122.85ZM42.3615 122.086L42.3615 121.935L42.2303 121.859L42.2303 122.01L42.3615 122.086ZM43.6848 127.573L43.6848 127.724L43.816 127.8L43.816 127.649L43.6848 127.573ZM42.3615 126.809L42.2303 126.733L42.2303 126.885L42.3615 126.96L42.3615 126.809ZM41.3985 121.53L41.5297 121.606L41.5297 121.455L41.3985 121.379L41.3985 121.53ZM40.0752 120.766L40.0752 120.615L39.944 120.539L39.944 120.691L40.0752 120.766ZM41.3985 126.253L41.3985 126.405L41.5297 126.48L41.5297 126.329L41.3985 126.253ZM40.0752 125.489L39.944 125.413L39.944 125.565L40.0752 125.641L40.0752 125.489ZM48.2558 125.489L48.3869 125.565L48.3869 125.414L48.2558 125.338L48.2558 125.489ZM46.9325 124.725L46.9325 124.574L46.8013 124.498L46.8013 124.65L46.9325 124.725ZM48.2558 130.212L48.2558 130.364L48.3869 130.439L48.3869 130.288L48.2558 130.212ZM46.9325 129.448L46.8013 129.372L46.8013 129.524L46.9325 129.6L46.9325 129.448ZM49.218 126.045L49.218 125.893L49.0868 125.818L49.0868 125.969L49.218 126.045ZM50.5412 126.809L50.6724 126.884L50.6724 126.733L50.5412 126.657L50.5412 126.809ZM49.218 130.768L49.0868 130.692L49.0868 130.843L49.218 130.919L49.218 130.768ZM50.5412 131.532L50.5412 131.683L50.6724 131.759L50.6724 131.607L50.5412 131.532ZM44.6475 123.557L45.9707 124.321L45.9707 124.018L44.6475 123.254L44.6475 123.557ZM44.7787 128.204L44.7787 123.481L44.5163 123.33L44.5163 128.053L44.7787 128.204ZM45.9707 128.741L44.6475 127.977L44.6475 128.28L45.9707 129.044L45.9707 128.741ZM45.8395 124.094L45.8395 128.817L46.1019 128.968L46.1019 124.245L45.8395 124.094ZM43.6848 122.699L42.3615 121.935L42.3615 122.238L43.6848 123.002L43.6848 122.699ZM43.816 127.649L43.816 122.926L43.5536 122.774L43.5536 127.497L43.816 127.649ZM42.3615 126.96L43.6848 127.724L43.6848 127.421L42.3615 126.657L42.3615 126.96ZM42.2303 122.01L42.2303 126.733L42.4927 126.885L42.4927 122.162L42.2303 122.01ZM41.3985 121.379L40.0752 120.615L40.0752 120.918L41.3985 121.682L41.3985 121.379ZM41.5297 126.329L41.5297 121.606L41.2673 121.455L41.2673 126.177L41.5297 126.329ZM40.0752 125.641L41.3985 126.405L41.3985 126.102L40.0752 125.338L40.0752 125.641ZM39.944 120.691L39.944 125.413L40.2064 125.565L40.2064 120.842L39.944 120.691ZM48.2558 125.338L46.9325 124.574L46.9325 124.877L48.2558 125.641L48.2558 125.338ZM48.3869 130.288L48.3869 125.565L48.1246 125.414L48.1246 130.136L48.3869 130.288ZM46.9325 129.6L48.2558 130.364L48.2558 130.061L46.9325 129.297L46.9325 129.6ZM46.8013 124.65L46.8013 129.372L47.0637 129.524L47.0637 124.801L46.8013 124.65ZM49.218 126.196L50.5412 126.96L50.5412 126.657L49.218 125.893L49.218 126.196ZM49.3491 130.843L49.3491 126.121L49.0868 125.969L49.0868 130.692L49.3491 130.843ZM50.5412 131.38L49.218 130.616L49.218 130.919L50.5412 131.683L50.5412 131.38ZM50.41 126.733L50.41 131.456L50.6724 131.607L50.6724 126.884L50.41 126.733Z" fill="#2C3242" mask="url(#path-18-inside-6_77_1238)"/>
<mask id="path-20-inside-7_77_1238" fill="white">
<path fill-rule="evenodd" clip-rule="evenodd" d="M100.468 144.645L101.791 143.881L101.791 148.604L100.468 149.368L100.468 144.645ZM98.1826 145.965L99.5059 145.201L99.5059 149.924L98.1826 150.688L98.1826 145.965ZM104.077 142.562L102.754 143.326L102.754 148.049L104.077 147.285L104.077 142.562ZM105.04 142.006L106.363 141.242L106.363 145.965L105.04 146.729L105.04 142.006ZM108.648 139.922L107.325 140.686L107.325 145.409L108.648 144.645L108.648 139.922Z"/>
</mask>
<path fill-rule="evenodd" clip-rule="evenodd" d="M100.468 144.645L101.791 143.881L101.791 148.604L100.468 149.368L100.468 144.645ZM98.1826 145.965L99.5059 145.201L99.5059 149.924L98.1826 150.688L98.1826 145.965ZM104.077 142.562L102.754 143.326L102.754 148.049L104.077 147.285L104.077 142.562ZM105.04 142.006L106.363 141.242L106.363 145.965L105.04 146.729L105.04 142.006ZM108.648 139.922L107.325 140.686L107.325 145.409L108.648 144.645L108.648 139.922Z" fill="#3C5ADC"/>
<path d="M101.791 143.881L101.922 143.805L101.922 143.654L101.791 143.73L101.791 143.881ZM100.468 144.645L100.468 144.494L100.337 144.569L100.337 144.721L100.468 144.645ZM101.791 148.604L101.791 148.755L101.922 148.68L101.922 148.528L101.791 148.604ZM100.468 149.368L100.337 149.444L100.337 149.595L100.468 149.519L100.468 149.368ZM99.5059 145.201L99.6371 145.125L99.6371 144.974L99.5059 145.05L99.5059 145.201ZM98.1826 145.965L98.1826 145.814L98.0514 145.889L98.0514 146.041L98.1826 145.965ZM99.5059 149.924L99.5059 150.075L99.6371 150L99.6371 149.848L99.5059 149.924ZM98.1826 150.688L98.0514 150.764L98.0514 150.915L98.1826 150.839L98.1826 150.688ZM102.754 143.326L102.754 143.174L102.623 143.25L102.623 143.402L102.754 143.326ZM104.077 142.562L104.208 142.486L104.208 142.335L104.077 142.41L104.077 142.562ZM102.754 148.049L102.623 148.124L102.623 148.276L102.754 148.2L102.754 148.049ZM104.077 147.285L104.077 147.436L104.208 147.36L104.208 147.209L104.077 147.285ZM106.363 141.242L106.495 141.166L106.495 141.015L106.363 141.09L106.363 141.242ZM105.04 142.006L105.04 141.854L104.909 141.93L104.909 142.082L105.04 142.006ZM106.363 145.965L106.363 146.116L106.495 146.04L106.495 145.889L106.363 145.965ZM105.04 146.729L104.909 146.804L104.909 146.956L105.04 146.88L105.04 146.729ZM107.325 140.686L107.325 140.535L107.194 140.611L107.194 140.762L107.325 140.686ZM108.648 139.922L108.78 139.847L108.78 139.695L108.648 139.771L108.648 139.922ZM107.325 145.409L107.194 145.485L107.194 145.636L107.325 145.561L107.325 145.409ZM108.648 144.645L108.648 144.797L108.78 144.721L108.78 144.57L108.648 144.645ZM101.791 143.73L100.468 144.494L100.468 144.797L101.791 144.033L101.791 143.73ZM101.922 148.528L101.922 143.805L101.66 143.957L101.66 148.68L101.922 148.528ZM100.468 149.519L101.791 148.755L101.791 148.453L100.468 149.217L100.468 149.519ZM100.337 144.721L100.337 149.444L100.599 149.292L100.599 144.569L100.337 144.721ZM99.5059 145.05L98.1826 145.814L98.1826 146.117L99.5059 145.353L99.5059 145.05ZM99.6371 149.848L99.6371 145.125L99.3747 145.277L99.3747 150L99.6371 149.848ZM98.1826 150.839L99.5059 150.075L99.5059 149.772L98.1826 150.536L98.1826 150.839ZM98.0514 146.041L98.0514 150.764L98.3138 150.612L98.3138 145.889L98.0514 146.041ZM102.754 143.477L104.077 142.713L104.077 142.41L102.754 143.174L102.754 143.477ZM102.885 147.973L102.885 143.25L102.623 143.402L102.623 148.124L102.885 147.973ZM104.077 147.133L102.754 147.897L102.754 148.2L104.077 147.436L104.077 147.133ZM103.946 142.638L103.946 147.36L104.208 147.209L104.208 142.486L103.946 142.638ZM106.363 141.09L105.04 141.854L105.04 142.157L106.363 141.393L106.363 141.09ZM106.495 145.889L106.495 141.166L106.232 141.318L106.232 146.04L106.495 145.889ZM105.04 146.88L106.363 146.116L106.363 145.813L105.04 146.577L105.04 146.88ZM104.909 142.082L104.909 146.804L105.171 146.653L105.171 141.93L104.909 142.082ZM107.325 140.838L108.648 140.074L108.648 139.771L107.325 140.535L107.325 140.838ZM107.456 145.334L107.456 140.611L107.194 140.762L107.194 145.485L107.456 145.334ZM108.648 144.494L107.325 145.258L107.325 145.561L108.648 144.797L108.648 144.494ZM108.517 139.998L108.517 144.721L108.78 144.57L108.78 139.847L108.517 139.998Z" fill="#2C3242" mask="url(#path-20-inside-7_77_1238)"/>
<rect x="-7.99575e-09" y="0.134146" width="69.8902" height="69.8215" rx="8.67401" transform="matrix(0.866025 0.5 -0.866025 0.5 91.6132 73.7706)" fill="url(#paint3_linear_77_1238)" stroke="#2C3242" stroke-width="0.268293"/>
<path d="M91.54 141.01V157.107" stroke="#2C3242" stroke-width="0.268293"/>
<mask id="path-24-inside-8_77_1238" fill="white">
<path fill-rule="evenodd" clip-rule="evenodd" d="M133.92 56.2312H48.0664V105.597H48.0738C48.1407 106.777 48.9545 107.946 50.515 108.847L85.1108 128.821C88.3717 130.704 93.6586 130.704 96.9195 128.821L131.47 108.873C133.042 107.966 133.856 106.786 133.912 105.597H133.92V56.2312Z"/>
</mask>
<path fill-rule="evenodd" clip-rule="evenodd" d="M133.92 56.2312H48.0664V105.597H48.0738C48.1407 106.777 48.9545 107.946 50.515 108.847L85.1108 128.821C88.3717 130.704 93.6586 130.704 96.9195 128.821L131.47 108.873C133.042 107.966 133.856 106.786 133.912 105.597H133.92V56.2312Z" fill="url(#paint4_linear_77_1238)"/>
<path d="M48.0664 56.2312V56.0261H47.8613V56.2312H48.0664ZM133.92 56.2312H134.125V56.0261H133.92V56.2312ZM48.0664 105.597H47.8613V105.802H48.0664V105.597ZM48.0738 105.597L48.2786 105.585L48.2676 105.392H48.0738V105.597ZM50.515 108.847L50.6175 108.67H50.6175L50.515 108.847ZM85.1108 128.821L85.2134 128.643L85.1108 128.821ZM96.9195 128.821L96.8169 128.643L96.9195 128.821ZM131.47 108.873L131.572 109.051L131.47 108.873ZM133.912 105.597V105.392H133.717L133.708 105.587L133.912 105.597ZM133.92 105.597V105.802H134.125V105.597H133.92ZM48.0664 56.4363H133.92V56.0261H48.0664V56.4363ZM48.2715 105.597V56.2312H47.8613V105.597H48.2715ZM48.0738 105.392H48.0664V105.802H48.0738V105.392ZM50.6175 108.67C49.0929 107.789 48.3403 106.673 48.2786 105.585L47.869 105.609C47.9412 106.882 48.816 108.103 50.4124 109.025L50.6175 108.67ZM85.2134 128.643L50.6175 108.67L50.4124 109.025L85.0082 128.999L85.2134 128.643ZM96.8169 128.643C95.225 129.563 93.1256 130.028 91.0152 130.028C88.9047 130.028 86.8053 129.563 85.2134 128.643L85.0082 128.999C86.6772 129.962 88.8517 130.438 91.0152 130.438C93.1786 130.438 95.3531 129.962 97.0221 128.999L96.8169 128.643ZM131.367 108.696L96.8169 128.643L97.0221 128.999L131.572 109.051L131.367 108.696ZM133.708 105.587C133.656 106.683 132.903 107.809 131.367 108.696L131.572 109.051C133.181 108.123 134.057 106.89 134.117 105.607L133.708 105.587ZM133.92 105.392H133.912V105.802H133.92V105.392ZM133.715 56.2312V105.597H134.125V56.2312H133.715Z" fill="#2C3242" mask="url(#path-24-inside-8_77_1238)"/>
<rect x="-7.99575e-09" y="0.134146" width="53.3097" height="53.2572" rx="6.68361" transform="matrix(0.866025 0.5 -0.866025 0.5 91.0839 29.4448)" fill="url(#paint5_linear_77_1238)" stroke="#2C3242" stroke-width="0.268293"/>
<path d="M91.2734 80.9142L91.2734 130.28" stroke="#2C3242" stroke-width="0.268293"/>
<path fill-rule="evenodd" clip-rule="evenodd" d="M78.4368 53.7715C79.5213 50.0114 85.5109 47.4857 92.0148 47.9558C92.1566 48.6306 92.1504 49.2771 91.9795 49.8924C91.857 50.3326 91.6499 50.7608 91.3525 51.1764C91.343 51.1904 91.3333 51.2042 91.3228 51.2177C91.1503 51.4401 90.7653 51.6708 90.2943 51.6031C87.0236 51.1295 84.8622 52.4552 84.7576 54.4508C84.6571 56.3776 86.4406 58.1721 89.7377 58.5264C93.0341 58.8807 95.675 57.5586 96.6968 55.7341C97.7291 53.8919 96.4125 52.3091 93.3181 51.9658C92.9497 51.9243 92.9116 51.7273 93.0185 51.5529C93.025 51.5428 93.0327 51.5329 93.0396 51.5227C93.3633 51.056 93.5908 50.5735 93.7293 50.0764C93.9021 49.456 93.9338 48.8187 93.8367 48.1662C100.028 49.1555 104.083 52.7181 103.018 56.4136C101.892 60.3181 95.4769 62.8916 88.689 62.1622C81.9013 61.4327 77.3113 57.676 78.4368 53.7715Z" fill="#EB4869"/>
<rect x="0.116174" y="0.0670732" width="8.02257" height="3.91309" transform="matrix(0.866026 -0.5 2.20305e-08 1 116.149 141.312)" fill="#2C3242" stroke="#2C3242" stroke-width="0.268293"/>
<rect x="0.116174" y="0.20122" width="2.47873" height="3.74494" transform="matrix(0.866026 0.5 -2.20305e-08 1 116.704 140.941)" fill="#DCE8E6" stroke="#2C3242" stroke-width="0.268293"/>
<rect x="0.232348" width="6.4269" height="2.23429" transform="matrix(0.866026 -0.5 0.866026 0.5 116.73 141.384)" fill="#F8FAFA" stroke="#2C3242" stroke-width="0.268293"/>
<rect x="0.116174" y="0.0670732" width="6.4269" height="3.91309" transform="matrix(0.866026 -0.5 2.20305e-08 1 118.882 142.311)" fill="#3C5ADC" stroke="#2C3242" stroke-width="0.268293"/>
<rect x="0.116174" y="0.20122" width="5.48115" height="3.74494" transform="matrix(0.866026 0.5 -2.20305e-08 1 111.421 138.367)" fill="#DCE8E6" stroke="#2C3242" stroke-width="0.268293"/>
<rect x="0.232348" width="7.96441" height="5.42431" transform="matrix(0.866026 -0.5 0.866026 0.5 111.285 138.716)" fill="#F8FAFA" stroke="#2C3242" stroke-width="0.268293"/>
<rect x="0.116174" y="0.0670732" width="33.5591" height="33.5591" rx="3.08537" transform="matrix(0.866025 -0.5 2.20305e-08 1 99.3369 86.8328)" fill="#F8FAFA" stroke="#2C3242" stroke-width="0.268293"/>
<path d="M123.671 104.335L123.671 135.093L99.6539 118.995C99.5147 118.902 99.4375 118.719 99.4375 118.482L99.4375 87.7808C99.4375 87.2622 99.8016 86.6316 100.251 86.3723L126.809 71.0388C127.029 70.9116 127.24 70.893 127.394 70.9874L152.66 86.5551L123.784 104.135L123.671 104.204L123.671 104.335Z" fill="#3C5ADC" stroke="#2C3242" stroke-width="0.268293"/>
<path d="M99.5781 87.1593L124.004 102.872" stroke="#2C3242" stroke-width="0.268293"/>
<rect x="0.116174" y="0.0670732" width="34.6374" height="34.6374" rx="3.08537" transform="matrix(0.866025 -0.5 2.20305e-08 1 122.947 102.13)" fill="#96ACFA" stroke="#2C3242" stroke-width="0.268293"/>
<rect x="-0.0655952" y="-0.0378714" width="20.8075" height="23.5906" transform="matrix(0.866025 -0.5 2.20305e-08 1 129.856 104.21)" fill="#DCE8E6" stroke="#2C3242" stroke-width="0.151486"/>
<mask id="mask1_77_1238" style="mask-type:alpha" maskUnits="userSpaceOnUse" x="129" y="93" width="19" height="35">
<rect x="0.0655952" y="0.0378714" width="20.5045" height="23.2877" transform="matrix(0.866025 -0.5 2.20305e-08 1 129.874 104.275)" fill="#DCE8E6" stroke="#2C3242" stroke-width="0.151486"/>
</mask>
<g mask="url(#mask1_77_1238)">
<rect x="-4.51462e-09" y="0.0757428" width="4.39308" height="20.686" transform="matrix(0.866025 0.5 -0.866025 0.5 144.179 115.272)" fill="#F8FAFA" stroke="#2C3242" stroke-width="0.151486"/>
<rect x="0.0655952" y="0.113614" width="4.39308" height="23.7157" transform="matrix(0.866025 0.5 -2.20305e-08 1 144.122 91.5693)" fill="#2C3242" stroke="#2C3242" stroke-width="0.151486"/>
<path opacity="0.2" d="M130.396 132.625L155.343 90.4304" stroke="#DCE8E6" stroke-width="2.14634"/>
</g>
<rect x="-0.116174" y="0.0670732" width="31.9268" height="31.9268" rx="3.08537" transform="matrix(-0.866025 -0.5 -2.20305e-08 1 83.1865 86.7166)" fill="#F8FAFA" stroke="#2C3242" stroke-width="0.268293"/>
<path d="M59.0537 104.335L59.0537 135.093L83.0707 118.995C83.2099 118.902 83.2871 118.719 83.2871 118.482L83.2871 87.7808C83.2871 87.2621 82.9231 86.6315 82.4739 86.3722L55.9155 71.0387C55.6952 70.9115 55.4843 70.893 55.3311 70.9874L30.0647 86.5551L58.9407 104.135L59.0537 104.204L59.0537 104.335Z" fill="#EB4869" stroke="#2C3242" stroke-width="0.268293"/>
<path d="M83.1465 87.1593L58.7206 102.872" stroke="#2C3242" stroke-width="0.268293"/>
<rect x="-0.116174" y="0.0670732" width="34.6374" height="34.6374" rx="3.08537" transform="matrix(-0.866025 -0.5 -2.20305e-08 1 59.5762 102.014)" fill="#EB4869" stroke="#2C3242" stroke-width="0.268293"/>
<rect x="0.0655952" y="-0.0378714" width="20.8075" height="23.5906" transform="matrix(-0.866025 -0.5 -2.20305e-08 1 52.9837 104.275)" fill="#DCE8E6" stroke="#2C3242" stroke-width="0.151486"/>
<mask id="mask2_77_1238" style="mask-type:alpha" maskUnits="userSpaceOnUse" x="34" y="93" width="19" height="35">
<rect x="-0.0655952" y="0.0378714" width="20.5045" height="23.2877" transform="matrix(-0.866025 -0.5 -2.20305e-08 1 52.7389 104.21)" fill="#DCE8E6" stroke="#2C3242" stroke-width="0.151486"/>
</mask>
<g mask="url(#mask2_77_1238)">
<rect x="4.51462e-09" y="0.0757428" width="4.39308" height="20.686" transform="matrix(-0.866025 0.5 0.866025 0.5 38.5487 115.272)" fill="#F8FAFA" stroke="#2C3242" stroke-width="0.151486"/>
<rect x="-0.0655952" y="0.113614" width="4.39308" height="23.7157" transform="matrix(-0.866025 0.5 2.20305e-08 1 38.4919 91.6349)" fill="#2C3242" stroke="#2C3242" stroke-width="0.151486"/>
</g>
<ellipse cx="4.40192" cy="4.40192" rx="4.40192" ry="4.40192" transform="matrix(0.866025 0.5 -2.20305e-08 1 28.6904 185.014)" fill="#2C3242"/>
<circle cx="4.13363" cy="4.13363" r="4.05788" transform="matrix(0.866025 0.5 -2.20305e-08 1 28.1533 185.55)" fill="#EB4869" stroke="#2C3242" stroke-width="0.151486"/>
<ellipse cx="4.40192" cy="4.40192" rx="4.40192" ry="4.40192" transform="matrix(0.848048 0.529919 -0.0348995 0.999391 39.7012 193.45)" fill="#2C3242"/>
<path d="M45.949 202.44C45.8708 204.68 44.2667 205.533 42.3661 204.345C40.4656 203.157 38.9882 200.379 39.0665 198.139C39.1447 195.899 40.7488 195.047 42.6494 196.234C44.5499 197.422 46.0272 200.2 45.949 202.44Z" fill="#3C5ADC" stroke="#2C3242" stroke-width="0.151486"/>
<circle cx="4.89313" cy="4.89313" r="4.81739" transform="matrix(0.866025 -0.5 0.866025 0.5 121.688 181.528)" fill="#EB4869" stroke="#2C3242" stroke-width="0.151486"/>
<path d="M117.785 154.411C117.785 157.013 115.959 160.176 113.706 161.477C111.452 162.778 109.626 161.723 109.626 159.122C109.626 156.52 111.452 153.356 113.706 152.056C115.959 150.755 117.785 151.809 117.785 154.411Z" fill="#EB4869" stroke="#2C3242" stroke-width="0.268293"/>
<path fill-rule="evenodd" clip-rule="evenodd" d="M127.068 168.975C127.068 168.383 126.645 167.673 126.124 167.391L113.97 160.811L113.97 152.226L133.674 162.893C134.195 163.175 134.617 163.885 134.617 164.477L134.617 183.572L127.068 179.485L127.068 168.975Z" fill="#2C3242"/>
<path fill-rule="evenodd" clip-rule="evenodd" d="M127.303 168.835C127.303 168.242 126.881 167.533 126.36 167.251L113.97 160.543L113.97 152.494L133.438 163.034C133.959 163.316 134.382 164.025 134.382 164.618L134.382 183.444L127.303 179.613L127.303 168.835Z" fill="#EB4869"/>
<path d="M130.843 181.528L130.843 165.653L122.406 161.086" stroke="url(#paint6_linear_77_1238)" stroke-width="2.68293"/>
<circle cx="4.89313" cy="4.89313" r="4.81739" transform="matrix(-0.866025 -0.5 -0.866025 0.5 62.0693 181.528)" fill="#3C5ADC" stroke="#2C3242" stroke-width="0.151486"/>
<path d="M65.9726 154.411C65.9726 157.012 67.7991 160.176 70.0522 161.477C72.3054 162.778 74.1319 161.723 74.1319 159.121C74.1319 156.52 72.3054 153.356 70.0522 152.055C67.7991 150.754 65.9726 151.809 65.9726 154.411Z" fill="#3C5ADC" stroke="#2C3242" stroke-width="0.268293"/>
<path fill-rule="evenodd" clip-rule="evenodd" d="M56.6903 168.975C56.6903 168.382 57.1128 167.673 57.6341 167.391L69.7881 160.811L69.7881 152.226L50.0841 162.893C49.5629 163.175 49.1404 163.884 49.1404 164.477L49.1404 183.572L56.6903 179.484L56.6903 168.975Z" fill="#2C3242"/>
<path fill-rule="evenodd" clip-rule="evenodd" d="M56.4544 168.834C56.4544 168.242 56.8769 167.533 57.3981 167.25L69.7881 160.543L69.7881 152.494L50.32 163.034C49.7988 163.316 49.3763 164.025 49.3763 164.618L49.3763 183.444L56.4544 179.612L56.4544 168.834Z" fill="#3C5ADC"/>
<path d="M52.9162 181.528L52.9162 165.653L61.3525 161.086" stroke="url(#paint7_linear_77_1238)" stroke-width="2.68293"/>
<defs>
<linearGradient id="paint0_linear_77_1238" x1="90.9895" y1="161.55" x2="90.9895" y2="220.137" gradientUnits="userSpaceOnUse">
<stop stop-color="#F3F4F9"/>
<stop offset="1" stop-color="#DCDFEC"/>
</linearGradient>
<linearGradient id="paint1_linear_77_1238" x1="90.9883" y1="132.523" x2="90.9883" y2="180.695" gradientUnits="userSpaceOnUse">
<stop stop-color="#F3F4F9"/>
<stop offset="1" stop-color="#DCDFEC"/>
</linearGradient>
<linearGradient id="paint2_linear_77_1238" x1="91.5491" y1="92.367" x2="91.5491" y2="157.267" gradientUnits="userSpaceOnUse">
<stop stop-color="#F3F4F9"/>
<stop offset="1" stop-color="#DCDFEC"/>
</linearGradient>
<linearGradient id="paint3_linear_77_1238" x1="35.0792" y1="0" x2="35.0792" y2="70.0898" gradientUnits="userSpaceOnUse">
<stop stop-color="white"/>
<stop offset="1" stop-color="#F4F4F9"/>
</linearGradient>
<linearGradient id="paint4_linear_77_1238" x1="90.9932" y1="56.2312" x2="90.9932" y2="130.233" gradientUnits="userSpaceOnUse">
<stop stop-color="#F3F4F9"/>
<stop offset="1" stop-color="#DCDFEC"/>
</linearGradient>
<linearGradient id="paint5_linear_77_1238" x1="26.789" y1="0" x2="26.789" y2="53.5255" gradientUnits="userSpaceOnUse">
<stop stop-color="white"/>
<stop offset="1" stop-color="#F4F4F9"/>
</linearGradient>
<linearGradient id="paint6_linear_77_1238" x1="122.406" y1="161.086" x2="121.669" y2="175.639" gradientUnits="userSpaceOnUse">
<stop stop-color="#DAFBF4" stop-opacity="0"/>
<stop offset="0.3116" stop-color="#DAFBF4" stop-opacity="0.385441"/>
<stop offset="1" stop-color="#DAFBF4" stop-opacity="0"/>
</linearGradient>
<linearGradient id="paint7_linear_77_1238" x1="61.3525" y1="161.085" x2="62.0898" y2="175.639" gradientUnits="userSpaceOnUse">
<stop stop-color="#DAFBF4" stop-opacity="0"/>
<stop offset="0.3116" stop-color="#DAFBF4" stop-opacity="0.385441"/>
<stop offset="1" stop-color="#DAFBF4" stop-opacity="0"/>
</linearGradient>
</defs>
</svg>
