<svg width="16" height="16" viewBox="0 0 16 16" fill="none" xmlns="http://www.w3.org/2000/svg">
<g clip-path="url(#clip0_1273_29)">
<path fill-rule="evenodd" clip-rule="evenodd" d="M3.41178 1.44709C6.89711 -0.993035 11.6518 -0.267327 14.2618 3.02209C13.7906 3.61119 13.274 4.11175 12.7068 4.51397C12.3008 4.80161 11.8655 5.04197 11.3988 5.23186C11.3834 5.23847 11.3679 5.24488 11.3523 5.25069C11.0965 5.34624 10.7366 5.35285 10.5743 5.08844C9.4502 3.24964 7.40528 3.31033 5.77159 4.81703C4.19438 6.27205 3.58665 8.4708 4.81753 10.2287C6.04821 11.9862 8.31026 12.1438 10.2288 11.1825C12.1662 10.2123 12.82 8.38808 11.6732 6.72995C11.5372 6.53205 11.6762 6.36159 11.8639 6.27385C11.8749 6.26884 11.8863 6.26464 11.8975 6.25983C12.4169 6.0419 12.9047 5.76848 13.3632 5.44379C13.9355 5.03837 14.4564 4.55643 14.9304 4.00479C16.9845 7.55801 16.0136 12.1542 12.5884 14.5527C8.96947 17.0867 3.98165 16.207 1.44739 12.5881C-1.08668 8.96916 -0.207141 3.98115 3.41178 1.44709" fill="#E93620"/>
</g>
<defs>
<clipPath id="clip0_1273_29">
<rect width="16" height="16" fill="white"/>
</clipPath>
</defs>
</svg>
